<svg xmlns="http://www.w3.org/2000/svg" width="82" height="82" viewBox="0 0 21.696 21.696" xmlns:v="https://vecta.io/nano"><path d="M4.585 10.297c-.707 5.965 2.099 11.031 6.268 11.316s8.121-4.32 8.828-10.285S17.582.297 13.413.012s-8.121 4.32-8.828 10.285z" fill="#f4d1a9"/><path d="M12.187 2.113c.257-.018.522.005.753.092s.408.23.496.407.082.377-.01.566-.268.35-.471.476a9.33 9.33 0 0 0-.791.582c-2.167 1.818-2.542 3.756-2.453 5.827.141 2.072.909 4.277 2.501 6.534l.568.753c.137.165.232.357.238.558s-.077.392-.239.54-.393.244-.65.275-.52-.009-.755-.082l-1.164-.449c-3.416-1.473-6.037-4.406-6.244-7.8-.377-3.338 2.613-7.246 6.866-8.064.455-.101.901-.169 1.358-.213z" fill="#dfb07c"/><path d="M9.557 19.375c-1.182 0-2.272-.201-3.27-.602a7.62 7.62 0 0 1-2.554-1.676 7.77 7.77 0 0 1-1.676-2.587c-.401-.998-.602-2.099-.602-3.303 0-.651.054-1.274.163-1.871a10.67 10.67 0 0 1 .472-1.692c.087-.206.13-.352.13-.439 0-.109-.027-.212-.081-.309l-.179-.309c-.065-.109-.125-.223-.179-.342S1.7 5.99 1.7 5.838c0-.455.26-.9.781-1.334.521-.445 1.209-.835 2.066-1.171.857-.347 1.827-.624 2.912-.83 1.084-.217 2.196-.326 3.335-.326 1.399 0 2.658.179 3.775.537 1.128.358 2.083.873 2.864 1.546a6.6 6.6 0 0 1 1.822 2.424c.423.955.635 2.029.635 3.222 0 1.334-.266 2.581-.797 3.742-.531 1.15-1.264 2.148-2.197 2.994-.922.846-2.012 1.513-3.27 2.001s-2.614.732-4.068.732zm7.061-8.835c0-.846-.146-1.605-.439-2.278s-.716-1.237-1.269-1.692c-.553-.467-1.237-.819-2.05-1.058-.803-.249-1.714-.374-2.733-.374-1.79 0-3.14.456-4.051 1.367-.9.9-1.35 2.245-1.35 4.035 0 .868.136 1.665.407 2.392.271.716.651 1.334 1.139 1.855.488.51 1.068.911 1.741 1.204.683.282 1.432.423 2.245.423.933 0 1.79-.141 2.571-.423.781-.293 1.448-.699 2.001-1.22.564-.521 1.003-1.139 1.318-1.855.315-.727.472-1.518.472-2.375z" fill="#574747"/></svg>