<svg xmlns="http://www.w3.org/2000/svg" width="202.317" height="93.121" viewBox="0 0 53.53 24.638" xmlns:v="https://vecta.io/nano"><path d="M3.13 13.31c-.707 5.965 2.099 11.031 6.268 11.316s8.121-4.32 8.828-10.285S16.127 3.31 11.958 3.025 3.837 7.345 3.13 13.31z" fill="#f4d1a9"/><path d="M10.732 5.126c.257-.018.522.005.753.092s.408.23.496.407.082.377-.01.566-.268.35-.471.476a9.33 9.33 0 0 0-.791.582c-2.167 1.818-2.542 3.756-2.453 5.827.141 2.072.909 4.277 2.501 6.534l.568.753c.137.165.232.357.238.558s-.077.392-.239.54-.393.244-.65.275-.52-.009-.755-.082l-1.164-.449c-3.416-1.473-6.037-4.406-6.244-7.8-.377-3.338 2.613-7.246 6.866-8.064.455-.101.901-.169 1.358-.213z" fill="#dfb07c"/><path d="M8.102 22.388q-1.773 0-3.27-.602-1.481-.602-2.554-1.676-1.074-1.09-1.676-2.587Q0 16.026 0 14.22q0-.976.163-1.871.179-.911.472-1.692.13-.309.13-.439 0-.163-.081-.309-.081-.146-.179-.309-.098-.163-.179-.342-.081-.179-.081-.407 0-.683.781-1.334.781-.667 2.066-1.171 1.285-.521 2.912-.83Q7.63 5.19 9.339 5.19q2.099 0 3.775.537 1.692.537 2.864 1.546 1.188.993 1.822 2.424.635 1.432.635 3.222 0 2.001-.797 3.742-.797 1.725-2.197 2.994-1.383 1.269-3.27 2.001-1.887.732-4.068.732zm7.061-8.835q0-1.269-.439-2.278-.439-1.009-1.269-1.692-.83-.7-2.05-1.058-1.204-.374-2.733-.374-2.685 0-4.051 1.367-1.35 1.35-1.35 4.035 0 1.302.407 2.392.407 1.074 1.139 1.855.732.765 1.741 1.204 1.025.423 2.245.423 1.399 0 2.571-.423 1.171-.439 2.001-1.22.846-.781 1.318-1.855.472-1.09.472-2.375zm15.538-7.419q.895 0 1.725.277.83.277 1.464.765.635.488 1.009 1.171.39.683.39 1.513 0 .342-.163.667-.146.309-.407.553-.26.228-.602.374-.325.13-.683.13-.032 0-.065.016-.016 0-.049 0-.032.016-.065.016l.065 1.302q.065 2.327.651 3.401.602 1.074 1.562 1.074.342 0 .602-.065.277-.065.504-.146.244-.098.456-.163.212-.065.423-.065.374 0 .651.325.293.325.293.781 0 .456-.358.911-.342.456-.911.83-.569.358-1.285.586-.716.228-1.448.228-1.269 0-2.229-1.041-.96-1.058-1.367-3.091-.098-.325-.26-.325-.195 0-.342.195-1.611 2.034-3.433 3.059-1.822 1.009-3.596 1.009-.83 0-1.497-.244-.667-.244-1.139-.683-.456-.456-.716-1.09-.244-.651-.244-1.448 0-1.123.488-2.359.504-1.237 1.35-2.441.846-1.204 1.952-2.294 1.123-1.09 2.343-1.92 1.237-.83 2.506-1.318 1.269-.488 2.424-.488zm-.537 5.63q.293-.553.537-.797.244-.26.7-.342.358-.049.358-.228 0-.13-.098-.277-.309-.423-.651-.732-.342-.325-.911-.325-.618 0-1.383.358-.765.358-1.562.96-.781.586-1.546 1.35-.748.748-1.334 1.546-.586.797-.944 1.578-.358.781-.358 1.399 0 .553.293.862.309.309.83.309 1.334 0 2.912-1.416 1.578-1.416 3.156-4.247zM40.497 1.562q0-.862.488-1.204Q41.473 0 42.596 0q.407 0 .683.081.293.065.488.26.212.195.325.521.13.309.212.797.195 1.513.423 3.124.244 1.611.504 3.238.098.732.765.732.179 0 .586-.032.423-.049.993-.098.569-.065 1.22-.13.667-.065 1.318-.114.667-.065 1.253-.098.602-.049 1.058-.049.358 0 .569.146.212.13.325.358.13.212.163.488.049.26.049.537 0 .244-.098.504-.081.26-.244.472-.146.195-.374.325-.228.13-.521.13-1.416 0-2.864.098-1.432.081-2.864.228-.732.098-.732.732 0 .049.016.13.016.065.016.114.195 1.416.358 2.652.179 1.237.293 2.213.13.96.195 1.611.081.635.081.846 0 .586-.114.976-.114.407-.374.651-.26.26-.7.358-.423.114-1.074.114-.618 0-.911-.293-.293-.293-.325-.895-.098-1.92-.309-3.856-.212-1.952-.488-3.889-.146-.7-.732-.7-.049 0-.114.016-.065.016-.114.016-1.009.228-1.904.456-.895.228-1.676.488-.439.146-.781.212-.342.049-.618.049-.374 0-.553-.325-.179-.342-.179-.846 0-.179.032-.407.032-.244.13-.472.081-.244.26-.439.163-.212.456-.342.683-.277 1.822-.569 1.139-.309 2.571-.569.325-.081.504-.26.195-.195.195-.569 0-.081 0-.163 0-.098-.032-.195-.26-1.497-.504-2.717-.228-1.237-.407-2.115-.163-.879-.26-1.383-.098-.504-.098-.586z" fill="#574747"/></svg>